<svg width="20" height="20" viewBox="0 0 20 20" fill="none" xmlns="http://www.w3.org/2000/svg">
<g id="icono-archivo">
<path id="Vector (Stroke)" fill-rule="evenodd" clip-rule="evenodd" d="M5.84244 3.45001C5.73264 3.45001 5.63085 3.49277 5.55856 3.56334C5.48688 3.63333 5.45001 3.72437 5.45001 3.8154V16.0846C5.45001 16.1757 5.48688 16.2667 5.55856 16.3367C5.63085 16.4073 5.73264 16.45 5.84244 16.45H14.1243C14.2341 16.45 14.3358 16.4073 14.4081 16.3367C14.4798 16.2667 14.5167 16.1757 14.5167 16.0846V5.95041C14.5167 5.95046 14.5167 5.95035 14.5167 5.95041C14.5166 5.85956 14.4798 5.76857 14.4084 5.69868M14.4084 5.69868L12.2212 3.56326C12.149 3.49278 12.0473 3.45008 11.9377 3.45001C11.9377 3.45001 11.9376 3.45001 11.9377 3.45001H5.84244M14.1243 17.95C14.6204 17.95 15.0998 17.7577 15.456 17.41C15.8128 17.0616 16.0167 16.5852 16.0167 16.0846V5.95024C16.0166 5.44999 15.8129 4.9738 15.4564 4.62556L13.2689 2.48981C12.9128 2.14239 12.4336 1.95012 11.9378 1.95001H5.84244C5.34625 1.95001 4.86688 2.14229 4.51068 2.49006C4.15387 2.83843 3.95001 3.31479 3.95001 3.8154V16.0846C3.95001 16.5852 4.15387 17.0616 4.51068 17.41C4.86688 17.7577 5.34625 17.95 5.84244 17.95H14.1243Z"/>
</g>
</svg>
