<svg width="20" height="20" viewBox="0 0 20 20" fill="none" xmlns="http://www.w3.org/2000/svg">
<g id="icono-cita">
<path id="Vector" d="M4.25954 14.4586C3.4012 13.547 2.94037 12.5245 2.94037 10.867C2.94037 7.95031 4.98787 5.33614 7.96537 4.04364L8.70954 5.19197C5.93037 6.69531 5.38704 8.64614 5.17037 9.87614C5.61787 9.64447 6.2037 9.56364 6.77787 9.61697C8.2812 9.75614 9.4662 10.9903 9.4662 12.5245C9.4662 13.298 9.15891 14.0399 8.61193 14.5869C8.06495 15.1339 7.32308 15.4411 6.54954 15.4411C5.65537 15.4411 4.80037 15.0328 4.25954 14.4586ZM12.5929 14.4586C11.7345 13.547 11.2737 12.5245 11.2737 10.867C11.2737 7.95031 13.3212 5.33614 16.2987 4.04364L17.0429 5.19197C14.2637 6.69531 13.7204 8.64614 13.5037 9.87614C13.9512 9.64447 14.537 9.56364 15.1112 9.61697C16.6145 9.75614 17.7995 10.9903 17.7995 12.5245C17.7995 13.298 17.4922 14.0399 16.9453 14.5869C16.3983 15.1339 15.6564 15.4411 14.8829 15.4411C13.9887 15.4411 13.1337 15.0328 12.5929 14.4586Z"/>
</g>
</svg>
