<svg width="20" height="20" viewBox="0 0 20 20" fill="none" xmlns="http://www.w3.org/2000/svg">
<g id="icono-emoji-triste">
<path id="Vector" d="M10 2C14.4184 2 18 5.5816 18 10C18 10.5816 17.9384 11.148 17.82 11.6944L16.3944 10.268C16.4531 8.8638 16.0479 7.47932 15.2415 6.32829C14.435 5.17727 13.2721 4.32371 11.9323 3.89938C10.5925 3.47505 9.1502 3.50354 7.82817 3.98047C6.50614 4.4574 5.37785 5.35623 4.6175 6.53821C3.85714 7.7202 3.507 9.1196 3.62112 10.5204C3.73524 11.9212 4.30728 13.2454 5.24893 14.2888C6.19058 15.3321 7.44947 16.0364 8.83127 16.2931C10.2131 16.5497 11.6409 16.3444 12.8944 15.7088C13.1997 16.1927 13.6293 16.5859 14.1384 16.8472C12.8906 17.6032 11.459 18.002 10 18C5.5816 18 2 14.4184 2 10C2 5.5816 5.5816 2 10 2ZM15.6 11.7376L16.7312 12.8688C16.9514 13.0889 17.1026 13.3685 17.1662 13.6733C17.2299 13.9781 17.2032 14.2948 17.0895 14.5847C16.9758 14.8745 16.78 15.1249 16.5261 15.3051C16.2722 15.4853 15.9712 15.5876 15.6601 15.5992C15.3489 15.6109 15.0411 15.5316 14.7744 15.3709C14.5077 15.2102 14.2937 14.9752 14.1585 14.6947C14.0234 14.4142 13.9731 14.1004 14.0137 13.7917C14.0543 13.483 14.1841 13.1928 14.3872 12.9568L14.4688 12.8688L15.6 11.7376ZM10 12.4C11.1728 12.4 12.228 12.9048 12.96 13.7096L12.204 14.3976C11.572 14.1456 10.8144 14 10 14C9.1856 14 8.428 14.1464 7.796 14.3968L7.04 13.7088C7.41457 13.296 7.8715 12.9662 8.38132 12.7408C8.89115 12.5153 9.44256 12.3993 10 12.4ZM7.2 8.4C7.51826 8.4 7.82348 8.52642 8.04853 8.75147C8.27357 8.97651 8.4 9.28174 8.4 9.6C8.4 9.91826 8.27357 10.2235 8.04853 10.4485C7.82348 10.6736 7.51826 10.8 7.2 10.8C6.88174 10.8 6.57652 10.6736 6.35147 10.4485C6.12643 10.2235 6 9.91826 6 9.6C6 9.28174 6.12643 8.97651 6.35147 8.75147C6.57652 8.52642 6.88174 8.4 7.2 8.4ZM12.8 8.4C13.1183 8.4 13.4235 8.52642 13.6485 8.75147C13.8736 8.97651 14 9.28174 14 9.6C14 9.91826 13.8736 10.2235 13.6485 10.4485C13.4235 10.6736 13.1183 10.8 12.8 10.8C12.4817 10.8 12.1765 10.6736 11.9515 10.4485C11.7264 10.2235 11.6 9.91826 11.6 9.6C11.6 9.28174 11.7264 8.97651 11.9515 8.75147C12.1765 8.52642 12.4817 8.4 12.8 8.4V8.4Z"/>
</g>
</svg>
