<svg width="20" height="20" viewBox="0 0 20 20" fill="none" xmlns="http://www.w3.org/2000/svg">
<g id="icono-emoji-feliz">
<path id="Vector" d="M9.75417 18.3035C5.1518 18.3035 1.42084 14.5725 1.42084 9.9702C1.42084 5.36783 5.1518 1.63687 9.75417 1.63687C14.3565 1.63687 18.0875 5.36783 18.0875 9.9702C18.0824 14.5705 14.3544 18.2985 9.75417 18.3035ZM9.75417 3.30354C6.07227 3.30354 3.0875 6.2883 3.0875 9.9702C3.0875 13.6521 6.07227 16.6369 9.75417 16.6369C13.4361 16.6369 16.4208 13.6521 16.4208 9.9702C16.4167 6.29002 13.4343 3.30767 9.75417 3.30354ZM9.75417 14.9702C8.4375 14.9925 7.193 14.3702 6.42084 13.3035C6.0459 12.8021 5.76368 12.2377 5.5875 11.6369H13.9208C13.9208 11.6369 13.9208 11.6369 13.9208 11.6435C13.7419 12.2412 13.4599 12.803 13.0875 13.3035C12.3153 14.3701 11.0708 14.9924 9.75417 14.9702ZM6.8375 9.9702C6.14715 9.9702 5.5875 9.41054 5.5875 8.7202C5.5875 8.02985 6.14715 7.4702 6.8375 7.4702C7.52786 7.4702 8.0875 8.02985 8.0875 8.7202C8.0875 9.41054 7.52786 9.9702 6.8375 9.9702ZM12.665 9.95854C11.9778 9.95854 11.4208 9.40154 11.4208 8.71437C11.4208 8.02724 11.9778 7.4702 12.665 7.4702C13.3522 7.4702 13.9092 8.02724 13.9092 8.71437C13.9083 9.40112 13.3518 9.95762 12.665 9.95854Z"/>
</g>
</svg>
