<svg width="20" height="20" viewBox="0 0 20 20" fill="none" xmlns="http://www.w3.org/2000/svg">
<g id="icono-empresa">
<path d="M16.1912 1.33347H7.85785C6.93868 1.33347 6.19118 2.08097 6.19118 3.00013V8.00013H4.52452C3.60535 8.00013 2.85785 8.74763 2.85785 9.6668V17.1668C2.85785 17.3878 2.94565 17.5998 3.10193 17.7561C3.25821 17.9123 3.47017 18.0001 3.69118 18.0001H17.0245C17.2455 18.0001 17.4575 17.9123 17.6138 17.7561C17.7701 17.5998 17.8578 17.3878 17.8578 17.1668V3.00013C17.8578 2.08097 17.1103 1.33347 16.1912 1.33347ZM4.52452 9.6668H9.52452V16.3335H4.52452V9.6668ZM16.1912 16.3335H11.1912V9.6668C11.1912 8.74763 10.4437 8.00013 9.52452 8.00013H7.85785V3.00013H16.1912V16.3335Z"/>
<path d="M9.52452 4.6668H11.1912V6.33347H9.52452V4.6668ZM12.8578 4.6668H14.5245V6.33347H12.8578V4.6668ZM12.8578 8.02597H14.5245V9.6668H12.8578V8.02597ZM12.8578 11.3335H14.5245V13.0001H12.8578V11.3335ZM6.19118 11.3343H7.85785V13.001H6.19118V11.3343Z"/>
</g>
</svg>
