<svg width="20" height="20" viewBox="0 0 20 20" fill="none" xmlns="http://www.w3.org/2000/svg">
<g id="icono-facebook">
<path id="Vector" d="M11.1667 16.9483C12.8477 16.7344 14.3843 15.8884 15.464 14.5823C16.5437 13.2762 17.0856 11.6079 16.9795 9.91664C16.8734 8.22534 16.1272 6.63791 14.8927 5.47698C13.6582 4.31606 12.028 3.66877 10.3333 3.66667C8.63663 3.6654 7.00329 4.31112 5.76612 5.47223C4.52894 6.63335 3.78103 8.22249 3.67479 9.91586C3.56854 11.6092 4.11195 13.2794 5.19429 14.5861C6.27663 15.8927 7.81645 16.7375 9.5 16.9483V12H7.83333V10.3333H9.5V8.955C9.5 7.84083 9.61667 7.43667 9.83333 7.02917C10.0468 6.62599 10.3766 6.29641 10.78 6.08333C11.0983 5.9125 11.4942 5.81 12.1858 5.76583C12.46 5.74833 12.815 5.77 13.2508 5.8325V7.41583H12.8333C12.0692 7.41583 11.7533 7.45167 11.565 7.5525C11.4526 7.6103 11.3611 7.70179 11.3033 7.81417C11.2033 8.0025 11.1667 8.18917 11.1667 8.95417V10.3333H13.25L12.8333 12H11.1667V16.9483ZM10.3333 18.6667C5.73083 18.6667 2 14.9358 2 10.3333C2 5.73083 5.73083 2 10.3333 2C14.9358 2 18.6667 5.73083 18.6667 10.3333C18.6667 14.9358 14.9358 18.6667 10.3333 18.6667Z"/>
</g>
</svg>
