<svg width="20" height="20" viewBox="0 0 20 20" fill="none" xmlns="http://www.w3.org/2000/svg">
<g id="icono-graduacion">
<path id="Vector" d="M11.2596 3.29371C10.4623 2.9021 9.53764 2.9021 8.74033 3.29371L1.42892 6.88483C1.1692 7.01239 1.00263 7.28261 1.00003 7.58057C0.999895 7.59642 1.00022 7.61219 1.001 7.62788C1.00034 7.64132 1 7.65485 1 7.66846V12.3342C1 12.7637 1.33579 13.1118 1.75 13.1118C2.16421 13.1118 2.5 12.7637 2.5 12.3342V8.84134L3.99999 9.61281V13.8894C3.99999 14.0957 4.07939 14.2939 4.22006 14.4397L4.22148 14.4412L4.25735 14.4773C4.27865 14.4985 4.3086 14.5278 4.34685 14.564C4.42332 14.6363 4.5332 14.7368 4.67355 14.8558C4.95366 15.0934 5.35842 15.408 5.86422 15.7227C6.8682 16.3473 8.31571 17 10.0001 17C11.6845 17 13.1319 16.3473 14.1359 15.7227C14.6416 15.408 15.0464 15.0934 15.3265 14.8558C15.4668 14.7367 15.5767 14.6363 15.6531 14.5639C15.6914 14.5277 15.7214 14.4985 15.7427 14.4773L15.7785 14.4412L15.7803 14.4393C15.921 14.2935 16 14.0957 16 13.8894V9.61281L18.5833 8.28422C18.8407 8.15181 19.0025 7.87852 19 7.58057C18.9974 7.28261 18.8308 7.01239 18.5711 6.88483L11.2596 3.29371ZM11.3075 12.0262L14.5 10.3843V13.5451C14.4632 13.5778 14.422 13.6136 14.3766 13.6521C14.1411 13.8519 13.7958 14.1205 13.3641 14.3891C12.4931 14.931 11.3156 15.4448 10.0001 15.4448C8.68455 15.4448 7.50702 14.931 6.63594 14.3891C6.2042 14.1205 5.85891 13.8519 5.62337 13.6521C5.57799 13.6136 5.53682 13.5778 5.49999 13.5451V10.3843L8.6925 12.0262C9.51627 12.4498 10.4837 12.4498 11.3075 12.0262ZM10.6175 4.69921L16.5308 7.6037L10.6409 10.6329C10.2371 10.8406 9.76287 10.8406 9.35905 10.6329L3.46909 7.6037L9.3825 4.69921C9.77334 4.50725 10.2266 4.50725 10.6175 4.69921Z"/>
</g>
</svg>
