<svg width="20" height="20" viewBox="0 0 20 20" fill="none" xmlns="http://www.w3.org/2000/svg">
<g id="icono-grupo">
<path d="M10.6969 9.75164C10.1697 9.74612 9.65588 9.58557 9.22021 9.29019C8.78453 8.99482 8.44645 8.57783 8.24853 8.09173C8.05061 7.60563 8.0017 7.07215 8.10794 6.55845C8.21419 6.04475 8.47086 5.57381 8.84562 5.20491C9.22039 4.83601 9.69649 4.58564 10.214 4.48534C10.7315 4.38504 11.2673 4.43928 11.7539 4.64123C12.2405 4.84319 12.6561 5.18383 12.9485 5.62027C13.2408 6.05671 13.3968 6.56943 13.3969 7.09389C13.3919 7.8021 13.105 8.47948 12.5989 8.97764C12.0928 9.4758 11.4089 9.75412 10.6969 9.75164ZM10.6969 5.36868C10.3551 5.37419 10.0226 5.48004 9.7411 5.67293C9.4596 5.86582 9.24169 6.13715 9.11472 6.45283C8.98775 6.76852 8.95739 7.11449 9.02745 7.44728C9.09752 7.78008 9.26488 8.08485 9.50852 8.32334C9.75216 8.56182 10.0612 8.72338 10.3969 8.78771C10.7325 8.85204 11.0798 8.81628 11.3951 8.68492C11.7103 8.55356 11.9796 8.33246 12.1689 8.04939C12.3583 7.76632 12.4593 7.4339 12.4594 7.09389C12.4544 6.63301 12.2663 6.19282 11.936 5.86954C11.6057 5.54626 11.1602 5.36619 10.6969 5.36868Z"/>
<path d="M10.6969 9.75164C10.1697 9.74612 9.65588 9.58557 9.22021 9.29019C8.78453 8.99482 8.44645 8.57783 8.24853 8.09173C8.05061 7.60563 8.0017 7.07215 8.10794 6.55845C8.21419 6.04475 8.47086 5.57381 8.84562 5.20491C9.22039 4.83601 9.69649 4.58564 10.214 4.48534C10.7315 4.38504 11.2673 4.43928 11.7539 4.64123C12.2405 4.84319 12.6561 5.18383 12.9485 5.62027C13.2408 6.05671 13.3968 6.56943 13.3969 7.09389C13.3919 7.8021 13.105 8.47948 12.5989 8.97764C12.0928 9.4758 11.4089 9.75412 10.6969 9.75164ZM10.6969 5.36868C10.3551 5.37419 10.0226 5.48004 9.7411 5.67293C9.4596 5.86582 9.24169 6.13715 9.11472 6.45283C8.98775 6.76852 8.95739 7.11449 9.02745 7.44728C9.09752 7.78008 9.26488 8.08485 9.50852 8.32334C9.75216 8.56182 10.0612 8.72338 10.3969 8.78771C10.7325 8.85204 11.0798 8.81628 11.3951 8.68492C11.7103 8.55356 11.9796 8.33246 12.1689 8.04939C12.3583 7.76632 12.4593 7.4339 12.4594 7.09389C12.4544 6.63301 12.2663 6.19282 11.936 5.86954C11.6057 5.54626 11.1602 5.36619 10.6969 5.36868Z"/>
<path d="M12.3328 10.3764C10.2537 10.0166 8.11329 10.3441 6.23906 11.309C6.10602 11.3825 5.99585 11.4909 5.92062 11.6225C5.84539 11.7541 5.80798 11.9037 5.8125 12.055V13.715C5.8125 13.8386 5.86189 13.9572 5.94979 14.0447C6.0377 14.1321 6.15693 14.1812 6.28125 14.1812C6.40557 14.1812 6.5248 14.1321 6.61271 14.0447C6.70061 13.9572 6.75 13.8386 6.75 13.715V12.1156C8.48797 11.2482 10.4644 10.973 12.375 11.3323L12.3328 10.3764Z"/>
<path d="M17.5313 12.4047H14.3906V11.7146C14.3906 11.591 14.3412 11.4724 14.2533 11.3849C14.1654 11.2975 14.0462 11.2484 13.9219 11.2484C13.7976 11.2484 13.6783 11.2975 13.5904 11.3849C13.5025 11.4724 13.4531 11.591 13.4531 11.7146V12.4047H10.0313C9.90693 12.4047 9.7877 12.4539 9.6998 12.5413C9.61189 12.6287 9.5625 12.7473 9.5625 12.871V17.5337C9.5625 17.6574 9.61189 17.776 9.6998 17.8634C9.7877 17.9509 9.90693 18 10.0313 18H17.5313C17.6556 18 17.7748 17.9509 17.8627 17.8634C17.9506 17.776 18 17.6574 18 17.5337V12.871C18 12.7473 17.9506 12.6287 17.8627 12.5413C17.7748 12.4539 17.6556 12.4047 17.5313 12.4047ZM17.0625 17.0675H10.5V13.3373H13.4531V13.5284C13.4531 13.6521 13.5025 13.7707 13.5904 13.8582C13.6783 13.9456 13.7976 13.9947 13.9219 13.9947C14.0462 13.9947 14.1654 13.9456 14.2533 13.8582C14.3412 13.7707 14.3906 13.6521 14.3906 13.5284V13.3373H17.0625V17.0675Z"/>
<path d="M15.0797 14.9319H12.2859V15.5847H15.0797V14.9319Z"/>
<path d="M7.14375 7.85391C5.84599 7.87551 4.57073 8.19463 3.41719 8.78646C3.29173 8.85237 3.18665 8.95097 3.11316 9.0717C3.03968 9.19242 3.00057 9.33075 3 9.47188V10.9173C3 11.041 3.04939 11.1596 3.13729 11.247C3.2252 11.3345 3.34443 11.3836 3.46875 11.3836C3.59307 11.3836 3.7123 11.3345 3.80021 11.247C3.88811 11.1596 3.9375 11.041 3.9375 10.9173V9.56513C5.03967 9.01942 6.25995 8.75199 7.49062 8.78646C7.32961 8.49423 7.21273 8.18001 7.14375 7.85391Z"/>
<path d="M17.5828 8.78179C16.5482 8.24195 15.4112 7.92424 14.2453 7.84925C14.1766 8.17477 14.0614 8.48882 13.9031 8.78179C15.0014 8.80794 16.0803 9.07545 17.0625 9.56513V10.9173C17.0625 11.041 17.1119 11.1596 17.1998 11.247C17.2877 11.3345 17.4069 11.3836 17.5312 11.3836C17.6556 11.3836 17.7748 11.3345 17.8627 11.247C17.9506 11.1596 18 11.041 18 10.9173V9.47188C18.0003 9.32996 17.9616 9.19065 17.888 9.06903C17.8145 8.9474 17.709 8.84808 17.5828 8.78179Z"/>
<path d="M7.05938 7.09389C7.05938 6.98665 7.05938 6.88407 7.05938 6.78149C6.69217 6.7326 6.35806 6.54473 6.1266 6.25697C5.89514 5.96922 5.78417 5.60375 5.81678 5.23666C5.8494 4.86956 6.02309 4.52912 6.3017 4.28621C6.58031 4.04329 6.94236 3.91662 7.3125 3.93256C7.69749 3.93187 8.06753 4.08078 8.34375 4.34754C8.58745 4.1476 8.85511 3.97845 9.14062 3.84397C8.82169 3.47918 8.39912 3.21909 7.92862 3.09797C7.45811 2.97684 6.96175 3.00038 6.50496 3.16547C6.04817 3.33056 5.65239 3.62946 5.36978 4.02276C5.08718 4.41607 4.93101 4.88533 4.92188 5.36868C4.93171 5.96027 5.16291 6.52696 5.5703 6.95806C5.97769 7.38917 6.53202 7.65372 7.125 7.70004C7.08524 7.50031 7.06328 7.29747 7.05938 7.09389Z"/>
<path d="M13.6734 3.00002C13.3513 3.00009 13.0324 3.06404 12.7354 3.18813C12.4384 3.31223 12.1693 3.49397 11.9437 3.72274C12.2606 3.83696 12.5603 3.99385 12.8344 4.18901C13.0532 4.03791 13.3092 3.94871 13.575 3.93094C13.8408 3.91316 14.1064 3.96747 14.3436 4.08808C14.5808 4.20868 14.7807 4.39106 14.9218 4.61577C15.063 4.84047 15.1403 5.09908 15.1453 5.36402C15.1424 5.63615 15.062 5.90189 14.9135 6.13047C14.765 6.35905 14.5545 6.54111 14.3062 6.65559C14.3251 6.79938 14.3345 6.94423 14.3344 7.08923C14.3331 7.27665 14.3174 7.46371 14.2875 7.64875C14.7981 7.51817 15.2511 7.22332 15.5758 6.8101C15.9005 6.39688 16.0787 5.88847 16.0828 5.36402C16.0766 4.73329 15.8197 4.13064 15.3683 3.68769C14.9169 3.24475 14.3075 2.99752 13.6734 3.00002Z"/>
</g>
</svg>
