<svg width="20" height="20" viewBox="0 0 20 20" fill="none" xmlns="http://www.w3.org/2000/svg">
<g id="icono-instagram">
<path id="Vector" d="M10.3333 7.83333C9.67029 7.83333 9.03441 8.09672 8.56557 8.56557C8.09672 9.03441 7.83333 9.67029 7.83333 10.3333C7.83333 10.9964 8.09672 11.6323 8.56557 12.1011C9.03441 12.5699 9.67029 12.8333 10.3333 12.8333C10.9964 12.8333 11.6323 12.5699 12.1011 12.1011C12.5699 11.6323 12.8333 10.9964 12.8333 10.3333C12.8333 9.67029 12.5699 9.03441 12.1011 8.56557C11.6323 8.09672 10.9964 7.83333 10.3333 7.83333ZM10.3333 6.16667C11.4384 6.16667 12.4982 6.60565 13.2796 7.38705C14.061 8.16846 14.5 9.22826 14.5 10.3333C14.5 11.4384 14.061 12.4982 13.2796 13.2796C12.4982 14.061 11.4384 14.5 10.3333 14.5C9.22826 14.5 8.16846 14.061 7.38705 13.2796C6.60565 12.4982 6.16667 11.4384 6.16667 10.3333C6.16667 9.22826 6.60565 8.16846 7.38705 7.38705C8.16846 6.60565 9.22826 6.16667 10.3333 6.16667ZM15.75 5.95833C15.75 6.2346 15.6403 6.49955 15.4449 6.6949C15.2496 6.89025 14.9846 7 14.7083 7C14.4321 7 14.1671 6.89025 13.9718 6.6949C13.7764 6.49955 13.6667 6.2346 13.6667 5.95833C13.6667 5.68207 13.7764 5.41711 13.9718 5.22176C14.1671 5.02641 14.4321 4.91667 14.7083 4.91667C14.9846 4.91667 15.2496 5.02641 15.4449 5.22176C15.6403 5.41711 15.75 5.68207 15.75 5.95833ZM10.3333 3.66667C8.27167 3.66667 7.935 3.6725 6.97583 3.715C6.3225 3.74583 5.88417 3.83333 5.4775 3.99167C5.11583 4.13167 4.855 4.29917 4.5775 4.5775C4.31667 4.8295 4.11613 5.13715 3.99083 5.4775C3.8325 5.88583 3.745 6.32333 3.715 6.97583C3.67167 7.89583 3.66667 8.2175 3.66667 10.3333C3.66667 12.395 3.6725 12.7317 3.715 13.6908C3.74583 14.3433 3.83333 14.7825 3.99083 15.1883C4.1325 15.5508 4.29917 15.8117 4.57583 16.0883C4.85667 16.3683 5.1175 16.5358 5.47583 16.6742C5.8875 16.8333 6.32583 16.9217 6.97583 16.9517C7.89583 16.995 8.2175 17 10.3333 17C12.395 17 12.7317 16.9942 13.6908 16.9517C14.3425 16.9208 14.7817 16.8333 15.1883 16.6758C15.5492 16.535 15.8117 16.3675 16.0883 16.0908C16.3692 15.81 16.5367 15.5492 16.675 15.1908C16.8333 14.78 16.9217 14.3408 16.9517 13.6908C16.995 12.7708 17 12.4492 17 10.3333C17 8.27167 16.9942 7.935 16.9517 6.97583C16.9208 6.32417 16.8333 5.88417 16.675 5.4775C16.5494 5.1375 16.3492 4.82997 16.0892 4.5775C15.8373 4.31654 15.5296 4.11597 15.1892 3.99083C14.7808 3.8325 14.3425 3.745 13.6908 3.715C12.7708 3.67167 12.4492 3.66667 10.3333 3.66667ZM10.3333 2C12.5975 2 12.88 2.00833 13.7683 2.05C14.6558 2.09167 15.26 2.23083 15.7917 2.4375C16.3417 2.64917 16.805 2.93583 17.2683 3.39833C17.6921 3.81491 18.02 4.31882 18.2292 4.875C18.435 5.40583 18.575 6.01083 18.6167 6.89833C18.6558 7.78667 18.6667 8.06917 18.6667 10.3333C18.6667 12.5975 18.6583 12.88 18.6167 13.7683C18.575 14.6558 18.435 15.26 18.2292 15.7917C18.0206 16.3481 17.6926 16.8522 17.2683 17.2683C16.8516 17.6919 16.3478 18.0198 15.7917 18.2292C15.2608 18.435 14.6558 18.575 13.7683 18.6167C12.88 18.6558 12.5975 18.6667 10.3333 18.6667C8.06917 18.6667 7.78667 18.6583 6.89833 18.6167C6.01083 18.575 5.40667 18.435 4.875 18.2292C4.3186 18.0204 3.81461 17.6925 3.39833 17.2683C2.97451 16.8518 2.64661 16.3479 2.4375 15.7917C2.23083 15.2608 2.09167 14.6558 2.05 13.7683C2.01083 12.88 2 12.5975 2 10.3333C2 8.06917 2.00833 7.78667 2.05 6.89833C2.09167 6.01 2.23083 5.40667 2.4375 4.875C2.64603 4.31848 2.974 3.81443 3.39833 3.39833C3.81473 2.97436 4.31869 2.64644 4.875 2.4375C5.40667 2.23083 6.01 2.09167 6.89833 2.05C7.78667 2.01083 8.06917 2 10.3333 2Z"/>
</g>
</svg>
