<svg width="150" height="79" viewBox="0 0 150 79" fill="none" xmlns="http://www.w3.org/2000/svg">
<g id="logo-ie">
<g id="industria-emblematica">
<path id="path5127" d="M107.13 35.334L104.909 37.6146C103.688 38.8689 102.69 40.0305 102.69 40.1943C102.69 40.3581 102.249 40.7243 101.711 41.009C101.173 41.2938 100.282 42.0168 99.732 42.6154C99.0975 43.3056 98.6879 43.5742 98.6121 43.3508C98.3658 42.6246 96.7798 41.1043 95.7065 40.5661C94.3382 39.88 92.3819 39.825 91.1868 40.4389C90.3745 40.8562 90.2174 40.8616 89.4801 40.4868C89.0298 40.2579 87.9641 40.0736 87.0924 40.0736C85.802 40.0736 85.2796 40.224 84.1868 40.9132C83.4538 41.3754 82.8518 41.8333 82.8484 41.9295C82.8449 42.0257 82.6056 42.4065 82.317 42.7756L81.7924 43.4466L80.7903 42.4319C80.2394 41.8744 79.181 41.1163 78.4379 40.7462C75.6647 39.3651 71.4916 40.0903 69.4706 42.3046L68.6652 43.1871L68.5895 39.4506L68.5122 35.7124L67.0746 35.7951L65.6352 35.8761L65.5579 39.3284C65.5155 41.2271 65.4174 42.7806 65.3393 42.7806C65.2612 42.7806 64.8866 42.4746 64.507 42.1014C62.7968 40.4207 60.0525 39.6478 57.7037 40.1844L56.1316 40.543V38.1418V35.7406H54.6166H53.0999V39.3631C53.0999 43.6593 52.8118 44.2826 51.6303 42.5278C50.1553 40.3372 47.2118 39.426 44.9078 40.4472C43.8869 40.8996 43.7431 40.9043 42.9573 40.505C41.9199 39.9777 39.6225 39.944 38.4173 40.4389C37.9274 40.6402 37.132 41.2478 36.6484 41.7891C35.1873 43.4247 34.9182 44.8667 34.9182 51.0882V56.5897H36.4332H37.9482L37.9751 55.5734C37.9895 55.0149 37.9834 53.2188 37.9617 51.5807C37.8987 46.8357 38.1714 44.7526 38.9571 43.9805C39.6349 43.3143 40.8687 42.8532 41.1733 43.1525C41.2663 43.2439 41.3145 46.3051 41.2792 49.9546L41.2153 56.5897H43.8771H46.5405L46.4547 49.9083C46.3607 42.679 46.3549 42.7063 47.8285 43.3062C49.3143 43.9111 49.4946 44.6368 49.5301 50.1149C49.5732 56.7613 49.5291 56.5897 51.2066 56.5897H52.55V55.2809C52.55 54.5611 52.6145 53.9086 52.693 53.8315C52.7714 53.7545 53.2948 54.1174 53.8565 54.638C54.8762 55.5832 56.0854 56.212 57.6466 56.6096C59.6461 57.1187 62.6523 56.2816 64.4784 54.7058L65.4973 53.8266L65.5293 54.7339C65.591 56.4972 65.5494 56.4485 67.0813 56.5352L68.529 56.6178L68.561 55.4527C68.5789 54.812 68.5672 54.1114 68.5357 53.896C68.5043 53.6805 68.9806 53.9501 69.5934 54.4942C71.4264 56.1218 72.7987 56.6745 75.0027 56.674C77.1206 56.6734 78.798 56.0869 80.2102 54.8528C80.6504 54.4681 81.1163 54.1521 81.2443 54.1521C81.3722 54.1521 81.4763 54.7016 81.4763 55.3717V56.5897H82.9913H84.5063V50.8783C84.5063 46.001 84.5744 45.0519 84.9721 44.3903C85.4764 43.5512 86.6412 42.9453 87.4472 43.1012C87.8715 43.1833 87.9281 43.3905 87.812 44.4117C87.7364 45.0787 87.6742 48.0603 87.6742 51.0386V56.4542L90.2401 56.5318L92.8043 56.6095L92.7505 49.8983C92.6915 42.4681 92.6666 42.5651 94.4269 43.4598C95.8874 44.2021 96.0781 45.0859 96.0781 51.1659V56.5897H97.5931H99.1081V55.2362C99.1081 54.4916 99.2086 53.8811 99.3318 53.8811C99.4549 53.8811 99.9192 54.2617 100.364 54.7255C101.416 55.8215 103.259 56.5947 104.859 56.6128C108.533 56.6544 111.509 56.5505 111.544 56.3781C111.566 56.2713 111.605 55.7502 111.633 55.2213C111.685 54.2378 112.855 51.4767 113.227 51.4567C113.341 51.4508 113.433 52.6019 113.433 54.0166V56.5897H114.949H116.464V50.0917V43.5937H118.23H119.995L120.195 45.9486C120.305 47.2443 120.313 49.7731 120.212 51.5675C120.112 53.3618 120.11 55.2249 120.209 55.7088C120.383 56.5571 120.438 56.5897 121.732 56.5897H123.076L123.108 55.5733C123.126 55.0149 123.12 54.4496 123.094 54.3157C123.069 54.1818 123.115 53.8972 123.198 53.6844C123.31 53.3988 123.542 53.5234 124.085 54.1571C125.769 56.1247 128.629 57.0957 131.281 56.6012C132.938 56.2923 133.549 56.0131 134.965 54.9222L135.974 54.1455L136.763 54.7983C138.862 56.5342 139.572 56.6844 145.321 56.6095L147.869 56.5764V55.4659C147.869 54.7427 148.146 53.8694 148.662 52.9672C150.813 49.2084 150.353 45.3004 147.408 42.3294C145.67 40.5753 143.909 39.9489 141.242 40.1365C139.299 40.2731 137.548 41.0318 136.467 42.2055L135.947 42.7707L134.967 41.9246C131.944 39.3162 127.41 39.407 124.513 42.1344C123.82 42.7876 123.212 43.3227 123.163 43.3227C122.887 43.3227 123.157 41.4795 123.498 41.0371C124.609 39.5924 123.487 37.094 121.725 37.094C120.278 37.094 119.424 38.1407 119.237 40.1414C119.226 40.2531 118.605 40.343 117.856 40.343H116.496L116.41 39.1928L116.326 38.0426L114.895 37.9617L113.466 37.879L113.38 39.0441C113.299 40.1478 113.245 40.2147 112.331 40.343C111.486 40.4617 111.356 40.584 111.282 41.3329L111.198 42.1873L109.774 41.2651C108.99 40.758 108.136 40.343 107.877 40.343C107.038 40.343 107.094 39.9035 108.07 38.8259C108.596 38.2457 109.023 37.7105 109.02 37.6361C109.018 37.5616 108.592 37.0138 108.074 36.4181L107.13 35.334ZM54.6166 36.8247C54.9563 36.8247 55.0285 37.3054 55.0285 39.5316C55.0285 41.0208 55.0954 42.2386 55.1765 42.2386C55.2576 42.2386 55.5992 42.0687 55.9348 41.8601C56.9788 41.2113 59.186 40.8873 60.5471 41.1842C67.1197 42.6181 68.1862 51.9588 62.1243 54.9982C60.9019 55.6111 58.5765 55.8845 57.507 55.5403C55.1941 54.796 53.9761 53.7241 52.9065 51.4931C51.9104 49.4152 52.0607 46.7889 53.3101 44.4464C54.1587 42.8554 54.2029 42.6265 54.2029 39.7977C54.2029 37.3343 54.2743 36.8247 54.6166 36.8247ZM67.1502 36.9585C67.5094 36.9585 67.5639 38.1596 67.5639 46.142C67.5639 52.9563 67.4805 55.3538 67.2393 55.4329C66.6866 55.6139 66.5709 53.5691 66.6559 45.0827C66.726 38.0784 66.7939 36.9585 67.1502 36.9585ZM107.199 37.2824C107.223 37.2817 107.245 37.2827 107.265 37.2875C107.307 37.2973 107.341 37.3192 107.364 37.3553C107.551 37.6489 107.245 38.1415 106.187 39.2508C104.496 41.0236 104.463 41.0437 104.227 40.4374C103.986 39.8215 106.467 37.3067 107.199 37.2826L107.199 37.2824ZM122.001 38.2079C122.036 38.2085 122.069 38.2104 122.1 38.213C122.48 38.2401 122.628 38.4117 122.807 38.874C123.024 39.4363 122.992 39.7528 122.664 40.2457C122.14 41.0313 121.399 41.0646 120.727 40.3349C119.953 39.4946 120.45 38.3407 121.635 38.2278C121.729 38.2187 121.813 38.2122 121.89 38.2097C121.929 38.2088 121.966 38.2071 122.001 38.208V38.2079ZM114.894 39.0656C115.072 39.103 115.251 39.5214 115.309 40.2968L115.393 41.4271H117.994C120.446 41.4271 120.596 41.4596 120.596 41.9907C120.596 42.5269 120.473 42.5497 118.048 42.4716L115.499 42.389L115.361 48.8589C115.258 53.6944 115.138 55.3554 114.88 55.4395C114.614 55.5266 114.529 54.4305 114.512 50.5875C114.5 47.8573 114.509 44.9227 114.532 44.0664C114.568 42.7354 114.502 42.5062 114.073 42.4815C113.797 42.4657 113.326 42.4352 113.026 42.4138C112.725 42.3924 112.438 42.1691 112.388 41.918C112.318 41.5649 112.535 41.4417 113.347 41.3759C114.372 41.2929 114.4 41.2635 114.483 40.1233C114.538 39.3717 114.716 39.0282 114.894 39.0656L114.894 39.0656ZM121.685 39.2606C121.54 39.2682 121.423 39.3874 121.423 39.5316C121.423 39.6805 121.547 39.8027 121.699 39.8027C121.85 39.8027 121.973 39.6805 121.973 39.5316C121.973 39.3827 121.85 39.2606 121.699 39.2606C121.694 39.2606 121.69 39.2604 121.685 39.2606H121.685ZM129.672 41.0619C130.19 41.0504 130.728 41.0953 131.288 41.1974C133.305 41.5654 135.711 43.4658 135.019 44.1457C134.799 44.3619 134.501 44.2431 133.925 43.711C132.799 42.672 131.592 42.2386 129.823 42.2386C126.337 42.2386 123.901 44.8003 123.901 48.4688C123.901 50.4378 124.505 51.7503 126.03 53.1044C128.235 55.0617 131.344 55.1026 133.703 53.2035C134.685 52.412 134.893 52.3344 135.039 52.7094C135.257 53.2667 134.306 54.3002 132.944 54.9867C130.243 56.3482 126.815 55.6914 124.814 53.4299C123.205 51.61 122.641 49.5887 123.069 47.1749C123.474 44.8866 123.854 44.2 125.542 42.7079C126.747 41.6432 128.118 41.0965 129.672 41.0619ZM93.302 41.0636C93.6402 41.0568 93.9715 41.0838 94.2655 41.1496C95.7491 41.481 96.6549 42.1919 97.3863 43.5987C97.9674 44.7163 98.0051 45.1254 98.0051 50.1479C98.0051 54.7299 97.9466 55.5056 97.5931 55.5056C97.2407 55.5056 97.1795 54.7681 97.1795 50.4883C97.1795 44.3032 96.9091 43.4305 94.6993 42.4601C93.8983 42.1082 92.951 42.1426 91.8543 42.5642C91.2293 42.8044 91.1149 42.976 91.2691 43.4318C91.5542 44.2742 91.8943 48.2622 91.9182 51.0387C91.9432 53.9424 91.7101 55.5639 91.2876 55.4263C91.0823 55.3594 90.936 53.5315 90.8437 49.8885C90.768 46.897 90.6058 44.351 90.4839 44.2316C89.9521 43.7107 89.75 45.1063 89.7457 49.3133C89.7414 54.105 89.5806 55.589 89.0849 55.4263C88.8755 55.3576 88.7606 53.7136 88.7251 50.2801C88.6776 45.6934 88.7689 44.6039 89.3102 43.3029C89.7523 42.2404 86.668 41.8858 85.1267 42.822C83.5819 43.7603 83.4049 44.5376 83.4049 50.3528C83.4049 54.8341 83.3487 55.5056 82.9762 55.5056C82.5993 55.5056 82.5575 54.8111 82.6315 49.7315L82.7155 43.9556L83.4873 42.9608C84.9712 41.0502 87.1986 40.5533 89.369 41.647C90.2977 42.1149 90.5705 42.1561 90.8134 41.8684C91.2037 41.4063 92.2875 41.0845 93.302 41.0636H93.302ZM105.634 41.1115C107.647 41.1166 108.963 41.655 110.325 43.0302C111.954 44.6748 112.438 45.8803 112.454 48.3317C112.467 50.3433 112.396 50.6255 111.443 52.288C110.879 53.2726 110.489 54.1459 110.574 54.2298C110.785 54.4368 110.421 55.5056 110.14 55.5056C110.017 55.5056 109.853 55.2708 109.777 54.9834C109.64 54.469 109.62 54.4702 108.528 55.0016C107.266 55.6153 104.845 55.8785 103.725 55.5238C101.636 54.8618 99.6649 52.8964 98.9131 50.7279C97.9826 48.044 99.0586 44.318 101.267 42.5757C102.771 41.389 103.618 41.1064 105.634 41.1115ZM40.7378 41.1149C41.7499 41.1073 42.3697 41.264 42.9287 41.6702C43.7018 42.2319 43.7156 42.2323 44.6169 41.7181C45.5426 41.19 46.1777 41.0731 47.8335 41.1264C49.0822 41.1666 50.9922 43.0104 51.4268 44.5969C51.6171 45.2913 51.7068 47.5887 51.6606 50.5495C51.597 54.6217 51.522 55.3718 51.1729 55.3718C50.8238 55.3718 50.7378 54.5229 50.6214 49.9066C50.4952 44.9011 50.4359 44.379 49.9068 43.6797C49.125 42.6462 48.2468 42.2487 46.7389 42.2436C45.2863 42.2393 44.2917 42.9512 44.9078 43.5557C45.1512 43.7946 45.275 45.5473 45.3382 49.6984C45.4165 54.8347 45.3763 55.5056 44.9935 55.5056C44.6167 55.5056 44.5578 54.8669 44.5395 50.5644C44.5253 47.205 44.4028 45.3204 44.1579 44.6762L43.798 43.7276L43.4903 44.4911C43.3021 44.9576 43.1826 47.2415 43.1826 50.3793C43.1826 54.756 43.1217 55.5056 42.769 55.5056C42.1733 55.5056 42.1597 44.918 42.7538 43.7987C43.1167 43.115 43.1 43.0257 42.5521 42.6485C41.6632 42.0366 39.5533 42.1206 38.6696 42.8038C37.1679 43.9647 37.0072 44.6465 36.9477 50.0917C36.9177 52.8467 36.883 55.1923 36.8704 55.304C36.8421 55.5557 36.4511 55.5679 36.2045 55.3255C35.8989 55.0251 36.0007 45.702 36.3222 44.5638C36.9545 42.3256 38.4829 41.132 40.7378 41.1149L40.7378 41.1149ZM74.9539 41.1217C77.0645 41.1217 78.2697 41.5691 79.7814 42.9114C81.5174 44.4529 82.7495 48.4073 81.6259 48.831C81.4053 48.9142 78.8013 48.973 75.84 48.9616C70.7666 48.942 70.456 48.9111 70.456 48.4327C70.456 47.9541 70.7576 47.9254 75.7005 47.9254C79.9878 47.9254 80.9696 47.8546 81.0929 47.5387C81.3232 46.9489 80.3002 44.9153 79.2568 43.8898C78.0433 42.6971 76.8776 42.2388 75.0548 42.2388C73.0832 42.2388 71.4372 43.1094 70.1953 44.8086C69.3945 45.9044 69.2194 46.4038 69.1259 47.8461C68.9766 50.1516 69.5731 51.6534 71.2009 53.0616C73.5307 55.0772 76.2099 55.2093 78.6144 53.4269C79.3216 52.9027 79.5281 52.8556 79.7831 53.1575C80.1862 53.6348 79.3232 54.4539 77.619 55.2133C73.2921 57.1413 68.1936 53.5813 68.1776 48.6211C68.1703 46.3703 68.6169 44.9884 69.7867 43.6452C71.3463 41.8545 72.8445 41.1217 74.9539 41.1217ZM141.866 41.163C144.097 41.1706 145.5 41.7987 146.986 43.4584C148.236 44.8539 148.972 46.7497 148.972 48.5748C148.972 49.8785 148.264 51.8907 147.514 52.7179C147.216 53.0471 146.95 53.7659 146.921 54.3258C146.864 55.4175 146.27 55.8989 146.041 55.0381C145.903 54.5178 145.889 54.518 144.825 55.0347C144.234 55.3222 143.035 55.6155 142.16 55.6875C140.821 55.7978 140.341 55.7052 139.124 55.0975C136.587 53.8317 134.912 51.2458 134.928 48.621C134.955 44.2684 137.857 41.1491 141.866 41.1629V41.163ZM121.702 41.4274C122.247 41.4274 122.257 41.5641 122.185 48.3765C122.115 54.9633 121.992 55.9762 121.337 55.3323C121.233 55.2299 121.147 52.0582 121.147 48.2856C121.147 41.5877 121.159 41.4274 121.702 41.4274ZM59.4995 42.2041C58.2586 42.1933 56.8272 42.5268 55.9735 43.0981L55.0336 43.7278L55.0302 46.2331C55.0287 48.278 54.954 48.7368 54.6166 48.7368C54.2903 48.7368 54.2029 48.3544 54.2029 46.9189C54.2029 45.1875 54.1795 45.1241 53.7204 45.5754C53.3392 45.9499 53.2386 46.5159 53.2395 48.274C53.2404 50.2325 53.3291 50.6329 53.986 51.6272C54.8161 52.8834 56.1189 53.9371 57.3708 54.3672C60.1016 55.3053 63.0937 53.9658 64.5423 51.1562C66.2724 47.8005 64.5492 43.6483 60.912 42.4107C60.5766 42.2965 60.176 42.2311 59.745 42.2107C59.6642 42.2065 59.5823 42.2048 59.4995 42.2039L59.4995 42.2041ZM106.11 42.2041C105.917 42.199 105.712 42.199 105.493 42.2058C100.511 42.3532 97.7899 48.0089 100.758 52.0486C101.705 53.3381 102.614 54.038 103.808 54.3936C105.659 54.9454 108.749 54.239 109.417 53.1112C109.557 52.8761 109.679 51.6446 109.691 50.3762C109.711 48.3695 109.78 48.0589 110.218 47.975C110.671 47.888 110.71 48.0542 110.623 49.6623C110.514 51.6654 110.743 51.9394 111.258 50.4291C112.096 47.9773 111.374 45.2997 109.424 43.6171C108.243 42.5981 107.46 42.2425 106.11 42.2041V42.2041ZM141.943 42.2388C138.489 42.2388 135.954 44.8322 135.954 48.3666C135.954 51.1597 137.303 53.16 139.948 54.2895C141.077 54.7719 142.471 54.7773 143.825 54.3027C145.763 53.6234 145.942 53.2975 145.942 50.4554C145.942 48.1057 145.98 47.9253 146.492 47.9253C146.987 47.9253 147.045 48.1096 147.055 49.7531C147.066 51.5416 147.075 51.5637 147.484 50.8223C148.051 49.7933 148.048 47.2279 147.477 45.8943C146.495 43.5992 144.436 42.2388 141.943 42.2388L141.943 42.2388ZM105.575 43.0816C106.191 43.0791 106.804 43.2576 107.552 43.6137C108.59 44.1072 110.403 46.0225 110.403 46.6248C110.403 46.7444 110.046 46.8429 109.609 46.8429C108.632 46.8429 108.543 47.1273 108.661 49.9052C108.71 51.069 108.624 52.2528 108.471 52.5344C108.317 52.816 107.729 53.1731 107.162 53.3277C105.08 53.8961 103.372 53.4423 102.01 51.961C99.5814 49.3186 100.364 45.1577 103.577 43.6286C104.339 43.2664 104.959 43.0841 105.575 43.0816ZM129.871 43.1328C129.979 43.1319 130.088 43.1345 130.197 43.1412C131.242 43.2072 132.279 43.6335 133.154 44.4468L134.005 45.2384L133.965 48.337C133.927 51.2182 133.877 51.4872 133.252 52.1528C132.882 52.5467 132.181 53.036 131.693 53.2402C127.376 55.048 123.177 49.8183 125.635 45.6962C126.626 44.0337 128.238 43.1468 129.871 43.133L129.871 43.1328ZM59.1834 43.1362C61.9624 43.1276 64.3695 45.8274 64.0563 49.031C63.9085 50.5433 63.0768 51.8858 61.7258 52.7956C60.6921 53.4917 58.5804 53.7665 57.5507 53.3376C56.6164 52.9484 55.528 52.0568 54.968 51.2223C54.3214 50.2587 54.3411 50.1854 55.3043 49.9961L56.1316 49.8341V47.0181C56.1316 43.8995 56.1603 43.8415 57.9778 43.3113C58.3832 43.1931 58.7864 43.137 59.1834 43.1362ZM141.912 43.1544C143.119 43.1678 144.358 43.662 145.406 44.6913C146.681 45.9447 146.847 46.8429 145.804 46.8429H145.115V49.6986V52.5543L143.944 53.0765C142.53 53.7076 141.131 53.7375 140.018 53.1608C137.454 51.8321 136.315 49.3029 137.163 46.8148C137.972 44.441 139.899 43.1319 141.912 43.1543V43.1544ZM75.1809 43.1858C75.2443 43.1859 75.3078 43.1862 75.3709 43.1891C75.6595 43.202 75.9448 43.2431 76.2217 43.3164C77.4209 43.6337 79.4238 45.3209 79.6855 46.2332L79.8604 46.843H75.1405H70.419L70.609 46.2332C71.1532 44.478 73.2159 43.183 75.1809 43.1858V43.1858ZM113.053 43.6088C113.078 43.6088 113.103 43.6105 113.126 43.6122C113.222 43.6198 113.299 43.6416 113.337 43.6783C113.411 43.7516 113.428 44.2195 113.375 44.7178L113.279 45.6234L112.851 44.6765C112.486 43.8716 112.479 43.7148 112.81 43.637C112.891 43.618 112.975 43.6089 113.052 43.6089L113.053 43.6088ZM70.3971 49.8209H75.8081C81.8521 49.8209 81.5668 49.7187 81.4242 51.8288L81.3384 53.0914L80.38 52.3015L79.4199 51.5132L78.5741 52.1478C78.1085 52.4968 77.2729 52.9692 76.7178 53.1971C75.3604 53.7545 74.3963 53.718 73.0438 53.06C71.6578 52.3857 70.834 51.5486 70.5854 50.5646L70.3971 49.8209Z" fill="#00C875"/>
<path id="path5081" d="M36.603 5.95758C35.0215 5.95758 34.9275 6.12716 34.9216 8.9967L34.9182 10.8179L34.0237 10.6212C30.9564 9.94872 28.2943 10.7289 26.1712 12.9249C25.4357 13.6857 25.0009 13.9766 25.0009 13.7066C25.0009 13.4702 24.4729 12.7386 23.8289 12.0804C22.4343 10.6549 20.8695 10.1317 18.9594 10.4543C18.2668 10.5712 16.9252 10.6313 15.9782 10.5865L14.2563 10.5038V18.6544V26.805H15.6049C16.5799 26.805 16.9989 26.6868 17.1199 26.377C17.2119 26.1414 17.2864 23.5754 17.2864 20.6739C17.2864 15.3446 17.4025 14.6107 18.3642 13.885C19.1184 13.3159 20.7581 13.4702 21.6111 14.1907L22.3829 14.8452L22.467 20.8243L22.551 26.805H24.0509H25.5508V25.435V24.0666L26.8606 25.1392C27.5803 25.7295 28.7262 26.4084 29.408 26.648C31.0763 27.2341 33.8548 27.0742 35.389 26.3042C36.0268 25.9842 37.0677 25.2221 37.7027 24.6103C38.7042 23.6456 38.8921 23.5577 39.1151 23.9493C39.7294 25.0282 41.0683 26.2407 42.0913 26.643C42.9905 26.9966 43.7895 27.0451 46.3589 26.9008C49.4406 26.7279 49.5201 26.7075 49.5201 26.0878C49.5201 25.3019 49.5674 25.3016 50.9863 26.0962C53.5646 27.5391 55.8352 27.1341 57.9139 24.8617L59.1616 23.4983V25.1658V26.8333L60.6076 26.7523L62.0537 26.6696L62.1277 20.2278L62.2017 13.7844L64.0563 13.8653L65.911 13.9446L65.985 20.3897L66.059 26.8332L67.5 26.7522L68.941 26.6695L69.0789 21.6341C69.2239 16.3321 69.1935 16.4626 70.7015 14.8238C72.0605 13.3469 72.1089 13.5451 72.1089 20.4426V26.8051H73.6256H75.1406V25.2929V23.7808L76.4084 24.8781C78.2295 26.4536 80.3405 27.1785 82.4398 26.9488C83.3489 26.8494 84.9296 26.7849 85.9524 26.8051L87.8121 26.8414V25.6235C87.8121 24.7197 88.0442 24.0393 88.7083 22.9892C89.5713 21.6247 89.6029 21.4709 89.6029 18.7074C89.6029 16.0857 89.5397 15.7341 88.8647 14.6057C87.3174 12.019 84.4973 10.2891 81.8278 10.2891C80.204 10.2891 78.0495 11.1449 76.5866 12.3697L75.1406 13.581L75.1492 12.6787C75.1543 12.1832 75.3362 11.4745 75.5527 11.1022C76.1907 10.0053 76.0575 8.98389 75.1609 8.10271C74.116 7.07571 73.1338 7.07571 72.0889 8.10271C71.5154 8.66634 71.2835 9.15749 71.2835 9.81149C71.2835 10.581 71.1375 10.7985 70.3873 11.1501C68.9843 11.8076 68.9432 11.811 68.9429 11.2377C68.9425 10.7298 68.7317 10.6909 65.5665 10.6196L62.1918 10.5436V9.48762C62.1918 8.32886 61.8705 8.15841 60.0563 8.35559C59.2166 8.44686 59.1618 8.51944 59.1618 9.50745C59.1618 10.5309 59.1351 10.5601 58.1983 10.5601C57.5249 10.5601 57.2332 10.683 57.2332 10.9667C57.2332 11.4847 57.1741 11.4786 56.078 10.851C54.0599 9.69549 52.015 9.95424 50.245 11.5897C49.5701 12.2133 49.4776 12.2406 49.6178 11.7781C49.9008 10.8446 49.445 10.52 47.9784 10.6114L46.6265 10.6956L46.539 16.5012C46.4908 19.6946 46.3408 22.5106 46.2061 22.7579C45.7851 23.531 44.3091 24.0785 43.4451 23.7825C41.7401 23.1983 41.6807 22.9736 41.5299 16.5574L41.3921 10.6956H40.0149H38.6378L38.4865 12.1846C38.3868 13.1722 38.266 13.5232 38.125 13.2274C38.008 12.9821 37.9354 12.6175 37.9636 12.416C37.9917 12.2145 38 10.6787 37.9821 9.0034L37.9484 5.95767L36.603 5.95758ZM36.5761 7.19207C36.8885 7.2414 36.9462 8.10924 36.9814 11.6425C36.9953 13.0454 37.1417 13.6232 37.701 14.4866C39.826 17.7665 39.2725 21.8564 36.3643 24.3724C35.6913 24.9546 34.6674 25.5181 33.9682 25.6912C32.747 25.9934 31.1359 26.0404 30.0974 25.8052C28.884 25.5303 26.9574 23.9544 26.0636 22.505C25.2905 21.2512 25.1269 20.6998 25.0413 19.0329C24.9538 17.3314 25.0394 16.85 25.6466 15.6302C27.4575 11.9924 31.2517 10.4251 34.6155 11.9251C35.2821 12.2223 35.8849 12.4078 35.9557 12.3382C36.0264 12.2687 36.0664 11.1236 36.0448 9.79324C36.0132 7.84958 36.0885 7.34265 36.4265 7.2152C36.4822 7.1938 36.5315 7.18534 36.5761 7.1921V7.19207ZM73.5213 8.41498C73.5478 8.41443 73.5738 8.4153 73.6003 8.41667C74.2369 8.44798 74.8648 8.9944 74.8648 9.68752C74.8648 10.1077 74.7154 10.5979 74.5335 10.7766C74.0817 11.2207 73.0739 11.186 72.6738 10.7121C72.2306 10.1872 72.4135 8.92247 72.9832 8.57199C73.1505 8.46909 73.3356 8.41885 73.5213 8.415L73.5213 8.41498ZM60.5706 9.25285C60.5816 9.25115 60.5931 9.25115 60.6043 9.25285C60.7824 9.27628 60.9759 9.69962 61.0364 10.5039L61.1205 11.6243L63.789 11.702C66.0735 11.7682 66.4692 11.8465 66.5483 12.2523C66.6312 12.6783 66.3591 12.7266 63.8646 12.7266H61.0902V19.2246C61.0902 24.8203 61.0324 25.7226 60.6766 25.7226C60.3207 25.7226 60.2629 24.8203 60.2629 19.2246V12.7266H59.328C58.7803 12.7266 58.332 12.569 58.2452 12.3465C58.035 11.8083 58.2935 11.6425 59.3449 11.6425C60.252 11.6425 60.2629 11.6273 60.2629 10.4014C60.2629 9.65489 60.4059 9.27772 60.5706 9.25285ZM73.4742 9.4776C73.3292 9.48521 73.2119 9.60436 73.2119 9.74862C73.2119 9.89754 73.3361 10.018 73.4877 10.018C73.6392 10.018 73.7617 9.89754 73.7617 9.74862C73.7617 9.59971 73.6392 9.4776 73.4877 9.4776C73.4829 9.4776 73.4789 9.47736 73.4742 9.4776H73.4742ZM53.606 11.1021C55.353 11.1021 57.5087 13.0812 57.5087 14.6849C57.5087 15.757 56.7832 15.6403 56.5721 14.5345C56.2103 12.6392 53.3953 11.7605 51.8674 13.0654C51.1027 13.7184 50.7098 15.2071 51.0014 16.3491C51.1952 17.1078 52.5305 18.1532 53.3857 18.2165C53.7855 18.2461 53.9268 18.4187 53.87 18.8065C53.7529 19.6062 53.1094 19.5847 51.8606 18.7387C50.6178 17.8967 49.7964 16.5169 49.7958 15.2732C49.7948 13.3278 51.828 11.1021 53.606 11.1021V11.1021ZM81.5705 11.3483C82.624 11.3187 83.7097 11.5729 84.8022 12.1168C88.7602 14.0872 90.0564 19.2773 87.5027 22.928C87.0527 23.5713 86.7107 24.4189 86.7107 24.8913C86.7107 25.4496 86.5747 25.7226 86.2971 25.7226C86.0698 25.7226 85.8834 25.5394 85.8834 25.316C85.8834 24.8058 85.9065 24.8049 84.4676 25.4466C83.0737 26.0682 80.9837 26.1353 79.477 25.6069C74.815 23.9719 73.2874 17.548 76.6791 13.8404C78.1468 12.2361 79.8146 11.3977 81.5705 11.3483ZM19.2066 11.3996C19.4426 11.3937 19.7174 11.4055 20.0591 11.4293C21.9032 11.5566 23.1227 12.3143 23.9046 13.8206C24.3936 14.7627 24.4494 15.4262 24.4494 20.2971C24.4494 24.9397 24.3893 25.7226 24.0357 25.7226C23.6834 25.7226 23.6238 24.9881 23.6238 20.7317C23.6238 17.8633 23.4979 15.4154 23.3295 14.9774C22.2464 12.1599 18.5414 11.6086 16.8761 14.0173C16.195 15.0023 16.185 15.1005 16.185 20.3698V20.3715C16.185 24.7634 16.1162 25.7226 15.8016 25.7226C15.5908 25.7226 15.3373 25.406 15.2383 25.0186C15.0387 24.2368 15.0847 13.3847 15.2921 12.3184C15.4648 11.4305 16.185 11.4333 16.185 12.3218V13.001L17.3553 12.1615C18.1382 11.6009 18.4985 11.4173 19.2066 11.3997V11.3996ZM67.5639 11.6425C67.8829 11.6425 67.9784 11.9972 67.9809 13.1993L67.9826 14.7577L68.6888 13.8768C69.3873 13.0057 71.4471 11.6425 72.0652 11.6425C72.2413 11.6425 72.3852 11.8562 72.3847 12.1168C72.3842 12.4053 71.8736 12.855 71.0815 13.267C70.1864 13.7327 69.5208 14.3608 68.9477 15.2766C68.1194 16.6004 68.1145 16.6326 68.028 21.1648C67.9596 24.7442 67.8614 25.7226 67.5723 25.7226C66.8963 25.7226 66.808 23.0275 67.1318 12.2523C67.1424 11.8993 67.3244 11.6425 67.5639 11.6425H67.5639ZM73.6255 11.6425C73.9823 11.6425 74.0375 12.6055 74.0375 18.6826C74.0375 24.7596 73.9823 25.7226 73.6255 25.7226C73.231 25.7226 73.143 23.388 73.143 12.8621C73.143 11.8816 73.2375 11.6425 73.6255 11.6425ZM40.0147 11.7714C40.1701 11.7577 40.336 13.517 40.4284 17.0581C40.548 21.6443 40.6358 22.4523 41.0976 23.2024C42.5852 25.6187 46.2354 25.3731 47.2871 22.786C47.4476 22.3911 47.6125 19.752 47.6536 16.9226C47.7169 12.5629 47.791 11.778 48.1412 11.778C48.496 11.778 48.5657 12.7686 48.6289 18.7718C48.6979 25.3355 48.6722 25.7575 48.2152 25.6648C47.9475 25.6104 47.7452 25.3578 47.7663 25.1029C47.8145 24.519 47.865 24.5114 46.3253 25.3161C43.7708 26.651 41.3968 25.9523 40.1173 23.4883C39.6417 22.5724 39.5976 21.947 39.665 17.1258C39.7146 13.5722 39.8594 11.7851 40.0147 11.7714ZM81.8832 12.4606C81.7788 12.4589 81.674 12.4598 81.5705 12.4639C77.9812 12.6033 74.9743 16.2454 75.9661 20.3088C76.2298 21.3889 76.6286 22.0274 77.7401 23.1463C78.5287 23.9402 79.4758 24.6528 79.8436 24.7295C81.3602 25.0457 83.8435 24.7166 84.8661 24.0651L85.8767 23.4206L85.8801 20.9169C85.8827 18.8727 85.9599 18.4116 86.2972 18.4116C86.6854 18.4116 86.8907 19.8674 86.7259 21.459C86.6346 22.3411 87.1732 21.939 87.4944 20.8855C88.5139 17.5409 87.134 14.3164 84.1062 12.9647C83.3638 12.6333 82.6142 12.4738 81.8833 12.4606L81.8832 12.4606ZM31.6629 12.5003C31.5082 12.5011 31.3565 12.507 31.2072 12.5184C30.8091 12.5491 30.435 12.6166 30.1058 12.7234C27.8852 13.4437 26.1778 15.694 25.9089 18.2546C25.6481 20.738 27.3176 23.4358 29.7998 24.541C30.3168 24.7713 31.3068 24.8872 32.3371 24.8369C36.3735 24.6396 38.8592 20.8177 37.6691 16.64C37.2202 15.0643 36.8561 15.5218 36.8502 17.6679C36.847 18.8529 36.7505 19.2247 36.4433 19.2247C36.1205 19.2247 36.0235 18.6739 35.9607 16.4747L35.8817 13.7265L34.8173 13.1828C33.9321 12.7318 32.7455 12.4919 31.6629 12.5003L31.6629 12.5003ZM53.6144 13.2671C54.3346 13.2671 55.5801 14.2911 55.5801 14.8833C55.5801 15.301 55.339 15.3801 54.018 15.3956C53.0639 15.4067 52.3695 15.5498 52.2323 15.7625C52.0894 15.9837 52.0063 15.7896 52.0036 15.2303C51.9988 14.2479 52.8032 13.2671 53.6144 13.2671ZM81.8597 13.5034C83.0667 13.5232 84.286 14.0067 85.2327 14.9494C86.0774 15.7904 86.78 17.4002 86.2618 17.3076C86.1302 17.2841 85.7435 17.2801 85.4025 17.2977C84.8016 17.3288 84.7821 17.4156 84.7821 20.1418V22.9529L83.8455 23.3908C80.577 24.9152 76.7934 22.4107 76.7934 18.7239C76.7934 17.305 77.3647 16.0455 78.5556 14.8403C79.4571 13.928 80.6526 13.4836 81.8597 13.5034V13.5034ZM31.9824 13.5546C32.7837 13.5571 33.5871 13.6876 34.096 13.9462L34.8997 14.3544L34.977 17.263L35.0561 20.1715L35.8144 20.2575C36.2311 20.3046 36.5711 20.4804 36.5711 20.6475C36.5711 21.2566 35.3158 22.7299 34.3347 23.2718C33.1202 23.9427 31.001 23.9942 29.8486 23.3809C27.4276 22.0923 26.3476 19.3498 27.2944 16.8977C27.7158 15.8064 28.9205 14.4285 29.8839 13.9346C30.3823 13.6791 31.181 13.552 31.9824 13.5546ZM58.8909 13.8091C59.0639 13.8091 59.1587 14.7954 59.138 16.3821C59.1196 17.7969 59.0635 18.9536 59.0136 18.9536C58.9637 18.9536 58.8495 18.7261 58.7597 18.4479C58.6699 18.1697 58.351 17.7241 58.0518 17.458C57.358 16.8409 57.3617 16.5176 58.0602 16.5176C58.5378 16.5176 58.6101 16.3358 58.6101 15.1625C58.6101 14.4179 58.7366 13.8091 58.8909 13.8091H58.8909ZM53.7489 16.2648C53.9948 16.2511 54.3941 16.3374 55.01 16.511C56.4007 16.903 57.4686 18.0592 57.9526 19.6956C58.594 21.8641 58.0153 23.766 56.3384 24.9987C55.3187 25.7483 53.2913 26.0961 52.2793 25.6945C50.8143 25.1132 49.2443 23.0293 49.2443 21.6671C49.2443 20.6139 49.964 20.5662 50.196 21.6043C50.6552 23.6591 52.5593 25.1219 54.3475 24.7922C55.6032 24.5607 56.8474 23.3422 57.2212 21.9778C57.4854 21.0132 57.4543 20.671 57.0143 19.6956C56.3764 18.2814 55.973 17.9413 54.5947 17.6613C53.7764 17.495 53.4928 17.2979 53.4261 16.8449C53.3767 16.509 53.4207 16.3252 53.6531 16.2764C53.6821 16.2705 53.7138 16.2667 53.7489 16.2648V16.2648ZM49.784 18.471C49.9089 18.471 50.8972 19.49 50.8972 19.6311C50.8972 19.7056 50.6083 19.7666 50.2548 19.7666C49.7516 19.7666 49.626 19.6338 49.6798 19.1568C49.7176 18.8218 49.7596 18.5165 49.7723 18.4793C49.774 18.4742 49.7779 18.4708 49.784 18.4708V18.471ZM55.3312 19.2362C55.4412 19.2294 55.6063 19.3353 55.8003 19.565C56.7611 20.7028 56.2188 22.9128 54.8268 23.5362C53.9341 23.936 53.3676 23.8916 52.4862 23.3544C51.6715 22.8579 51.1729 21.7759 51.1729 20.5087C51.1729 19.8495 51.257 19.7442 51.6538 19.9104C51.919 20.0215 52.8683 20.1726 53.7624 20.2459C55.3147 20.3731 55.3803 20.3523 55.2337 19.8013C55.1486 19.4815 55.1803 19.291 55.2875 19.2461C55.3009 19.2402 55.3155 19.2372 55.3312 19.2362V19.2362Z" fill="#00C875"/>
</g>
<g id="slogan">
<path id="path5195" d="M138.464 68.7626C138.427 68.7618 138.389 68.7633 138.352 68.7643C136.556 68.8105 134.668 70.9739 135.004 73.4362C135.085 74.0292 135.432 74.8072 135.774 75.1648C137.451 76.9196 140.608 75.0655 140.755 72.2397C140.836 70.6621 140.721 70.2221 140.032 69.4915C139.57 69.0019 139.024 68.7761 138.464 68.7627V68.7626ZM138.251 70.0351C138.294 70.036 138.337 70.0385 138.379 70.0436C139.052 70.1208 139.604 70.7076 139.604 71.7557C139.604 73.1256 139.158 74.0566 138.322 74.4313C137.516 74.792 137.398 74.7936 136.791 74.4461C136.071 74.0331 135.893 72.512 136.433 71.3921C136.883 70.461 137.608 70.0229 138.251 70.0354V70.0351Z" fill="#105F7D"/>
<path id="path5219" d="M36.4248 68.8123C36.1303 68.8038 35.8115 68.8369 35.4663 68.9114C33.2596 69.3878 32.0972 73.555 33.689 75.2838C34.3143 75.9629 36.1925 75.9921 37.0267 75.335C37.6094 74.8762 38.7719 73.1688 38.7738 72.7685C38.7743 72.6569 38.4649 72.5653 38.0861 72.5653C37.6485 72.5653 37.3983 72.7192 37.3983 72.985C37.3983 73.2152 37.0927 73.7019 36.7207 74.0675C35.0325 75.7267 33.2866 73.528 34.4844 71.2514C34.9221 70.4196 36.0679 69.7897 36.7056 70.0302C37.406 70.2943 37.1823 70.6404 35.7455 71.5093C34.8674 72.0403 34.3667 72.529 34.3667 72.8594C34.3667 73.1445 34.4845 73.3784 34.6273 73.3784C34.8278 73.3784 38.1131 71.4999 38.7637 71.0135C38.8328 70.9618 38.6619 70.5049 38.3837 69.9971C37.9647 69.2324 37.3083 68.8366 36.4248 68.8122V68.8123Z" fill="#105F7D"/>
<path id="path5217" d="M49.414 68.8023C49.2295 68.8032 49.0073 68.8225 48.7263 68.8536C47.2135 69.0212 46.1277 70.0591 45.6543 71.7869C45.1328 73.6901 45.8047 75.3525 47.3156 75.8953C47.5428 75.9769 47.7638 76.0521 47.8065 76.0638C47.8493 76.0756 48.2888 75.9199 48.7835 75.7168C49.8489 75.2793 51.1728 73.8212 51.1728 73.0859C51.1728 72.2525 50.2565 72.4819 49.7789 73.4346C49.1837 74.6219 48.0055 74.9885 47.2315 74.2278C45.7106 72.733 47.7131 69.0329 49.3905 70.2385C49.8178 70.5456 49.7219 70.6681 48.4539 71.4349C47.5102 72.0056 47.0398 72.4716 47.0398 72.8347C47.0398 73.5995 47.3149 73.5283 49.3636 72.2447C51.3304 71.0124 51.5044 70.6164 50.5776 69.4584C50.1779 68.959 49.9677 68.799 49.414 68.8024V68.8023Z" fill="#105F7D"/>
<path id="path5215" d="M14.0628 68.794C13.4528 68.7898 12.8328 68.9629 12.3326 69.3129C10.5208 70.5809 10.1403 74.3103 11.7037 75.4771C12.2012 75.8485 13.6556 75.9231 14.1654 75.6044C14.3428 75.4935 14.5804 75.0399 14.6934 74.5946C14.8649 73.9181 14.8344 73.8338 14.5084 74.089C12.6509 75.5429 10.9859 73.5003 12.1796 71.2316C12.7818 70.087 14.3828 69.7054 15.0868 70.5392C15.4289 70.9443 15.2916 74.4227 14.8935 75.4424C14.7684 75.7628 14.886 75.841 15.3878 75.7713C15.9519 75.6929 16.0739 75.4847 16.2302 74.3253C16.3306 73.5807 16.4221 72.2804 16.4354 71.4349C16.4566 70.0822 16.3729 69.8299 15.7342 69.3361C15.2729 68.9795 14.6728 68.7983 14.0628 68.794Z" fill="#105F7D"/>
<path id="path5213" d="M21.7051 68.7925C21.6283 68.795 21.5501 68.8011 21.4714 68.8106C21.0516 68.8613 20.6055 69.0174 20.1564 69.2866C17.7414 70.734 17.7528 75.4867 20.1716 75.768C21.5137 75.9241 22.2448 75.6048 22.2448 74.8624C22.2448 74.1004 22.2472 74.1012 21.3335 74.4426C20.2515 74.847 19.4906 74.1459 19.4906 72.7455C19.4906 70.2332 21.9909 68.9961 22.8064 71.1044C23.0432 71.7165 22.5189 76.8697 22.07 78.3411C21.9491 78.7372 22.048 78.8194 22.5626 78.7476C23.1682 78.6632 23.2362 78.4549 23.6875 75.2739C23.9516 73.4124 24.0967 71.462 24.0104 70.9408C23.7787 69.5417 22.857 68.7593 21.7051 68.7925H21.7051Z" fill="#105F7D"/>
<path id="path5211" d="M145.851 68.7842C145.729 68.7808 145.605 68.7876 145.48 68.8057C144.977 68.8771 144.459 69.1186 144.005 69.5196C143.296 70.1454 143.097 70.6093 142.769 72.4298C142.554 73.6211 142.374 74.8711 142.369 75.2061C142.362 75.6227 142.522 75.8143 142.872 75.8143C143.307 75.8143 143.434 75.4538 143.722 73.38C144.01 71.3144 144.166 70.8621 144.755 70.407C145.306 69.9806 145.563 69.9312 146.006 70.1641C146.522 70.4358 146.55 70.6239 146.374 72.7487C146.27 74.0092 146.116 75.2144 146.033 75.4276C145.931 75.6875 146.072 75.8143 146.458 75.8143C147.097 75.8143 147.187 75.5636 147.536 72.8181C147.788 70.8374 147.565 69.6228 146.858 69.1147C146.565 68.9041 146.218 68.7952 145.851 68.7842V68.7842Z" fill="#105F7D"/>
<path id="path5209" d="M115.361 68.7759C115.058 68.7759 114.809 68.8658 114.808 68.9775C114.804 69.2941 114.271 72.6311 114.115 73.3073C114.038 73.6405 113.659 74.1162 113.273 74.3649C112.606 74.7941 112.543 74.7895 112.012 74.2674C111.491 73.7558 111.473 73.5831 111.754 71.8034C112.178 69.1219 112.153 68.7179 111.574 68.8271C111.204 68.8971 111.015 69.3858 110.764 70.9441C110.303 73.8025 110.328 74.2951 110.974 75.102C111.931 76.2979 114.012 75.929 114.835 74.4178C115.079 73.9691 115.907 69.7835 115.911 68.9775C115.912 68.8658 115.664 68.7759 115.361 68.7759Z" fill="#105F7D"/>
<path id="path5207" d="M93.7812 68.7759C93.3951 68.7759 92.9953 68.9102 92.8917 69.075C92.758 69.2876 92.6411 69.2759 92.4898 69.0353C92.3725 68.8487 92.1005 68.7628 91.8861 68.8436C91.6232 68.9428 91.3817 69.858 91.1446 71.658C90.9514 73.1253 90.7281 74.6611 90.6469 75.0706C90.5231 75.6948 90.5933 75.8143 91.0841 75.8143C91.4061 75.8143 91.6701 75.7243 91.6709 75.6126C91.6787 74.8957 92.2852 71.761 92.5369 71.1407C92.7072 70.7209 93.1283 70.3223 93.4953 70.2318C93.8549 70.1431 94.1494 69.9723 94.1494 69.8517C94.1494 69.7311 94.2239 69.4395 94.3159 69.2039C94.4414 68.8824 94.3081 68.7759 93.7812 68.7759V68.7759Z" fill="#105F7D"/>
<path id="path5205" d="M27.2657 68.7759C26.6027 68.7759 26.4674 69.2178 26.2131 72.2166C26.0574 74.0518 26.1054 74.5593 26.4838 75.1268C26.8439 75.667 27.1703 75.8143 28.0089 75.8143C29.6658 75.8143 30.6182 74.5813 31.0221 71.9125C31.4514 69.0752 31.4335 68.718 30.8657 68.8255C30.5076 68.8932 30.3177 69.4042 30.072 70.9656C29.541 74.3413 29.1522 74.9311 27.7852 74.4244C27.1452 74.1872 27.1319 74.1186 27.3077 72.086C27.4073 70.9349 27.5629 69.7191 27.6541 69.384C27.7856 68.9004 27.7048 68.7759 27.2657 68.7759Z" fill="#105F7D"/>
<path id="path5203" d="M128.789 68.7743C128.456 68.7717 127.981 68.9041 127.343 69.1659C125.044 70.1101 124.303 74.1104 126.188 75.4078C126.513 75.6316 127.186 75.8143 127.683 75.8143C128.462 75.8143 128.586 75.7227 128.586 75.1384C128.586 74.6348 128.439 74.4608 128.016 74.4608C126.829 74.4608 126.381 73.9733 126.381 72.6793C126.381 71.1742 127.279 70.1294 128.572 70.1294C129.284 70.1294 129.411 70.0257 129.411 69.4518C129.411 69.0515 129.259 68.8306 128.924 68.7842C128.882 68.7783 128.837 68.7746 128.789 68.7743V68.7743Z" fill="#105F7D"/>
<path id="path5201" d="M6.8561 68.7742C6.81143 68.7737 6.7664 68.7743 6.72158 68.7759C5.6459 68.813 4.54578 69.4405 3.93707 70.4533C3.55828 71.0835 2.44531 76.9436 2.41703 78.4552C2.41358 78.6413 2.65878 78.794 2.96182 78.794C3.26486 78.794 3.51166 78.6712 3.51166 78.5213C3.51166 78.1536 4.3039 72.8846 4.49532 71.9787C4.84705 70.314 6.41899 69.4651 7.38744 70.417C7.88178 70.9028 7.95966 71.2188 7.84144 72.2497C7.6803 73.6548 6.55655 74.909 5.75138 74.5815C4.44959 74.0521 4.29204 74.0882 4.38603 74.8972C4.46765 75.5997 4.58965 75.6873 5.59332 75.7598C6.91965 75.8556 7.89839 75.2185 8.57456 73.818C9.39993 72.1085 8.94982 69.3881 7.76914 68.9428C7.47668 68.8325 7.16878 68.7779 6.8561 68.7743V68.7742Z" fill="#105F7D"/>
<path id="path5199" d="M57.305 68.7726C57.2374 68.7709 57.1611 68.7723 57.073 68.7759C56.8382 68.7853 56.527 68.8116 56.1112 68.8486C53.9541 69.0409 53.319 69.5655 53.431 71.0631C53.5069 72.0788 53.6152 72.2112 54.8905 72.8545C56.7918 73.8136 56.7085 74.3044 54.6231 74.4096C53.0466 74.4891 52.5624 74.7382 52.5532 75.4771C52.5503 75.7139 53.0912 75.8143 54.3524 75.8143C55.8996 75.8143 56.2524 75.7202 56.8326 75.1499C58.1178 73.8868 57.6368 72.3535 55.7312 71.6382C53.7364 70.8895 54.1572 70.1294 56.5669 70.1294C57.6986 70.1294 57.7843 70.0782 57.7843 69.4138C57.7843 68.9478 57.7782 68.7865 57.305 68.7726V68.7726Z" fill="#105F7D"/>
<path id="path5197" d="M74.8191 68.7693C73.123 68.7358 71.2821 70.616 71.2847 73.0313C71.286 74.3009 72.1403 75.7356 72.988 75.8903C74.339 76.1368 75.6943 75.4545 76.5292 74.1088C77.2046 73.0201 77.2114 72.5669 76.5511 72.5669C76.2391 72.5669 75.9007 72.8796 75.7002 73.3552C75.2855 74.3394 74.0545 74.9045 73.2486 74.4806C72.17 73.9133 72.2258 71.6783 73.3462 70.5772C73.8289 70.1028 75.2796 69.9648 75.5338 70.369C75.6167 70.5008 75.0033 71.014 74.1718 71.5093C72.5607 72.4689 72.5378 72.4979 72.9123 73.0792C73.1077 73.3825 73.5395 73.2227 75.0999 72.2678C76.1697 71.6132 77.0512 70.8822 77.0572 70.6433C77.0632 70.4045 76.7646 69.8855 76.393 69.4915C75.9335 69.0042 75.3845 68.7805 74.8191 68.7693H74.8191Z" fill="#105F7D"/>
<path id="path5193" d="M86.7056 68.7627C86.6405 68.7622 86.5747 68.7644 86.5089 68.7695C85.8766 68.8154 85.2138 69.1086 84.6408 69.6718C82.3339 71.9391 83.0353 75.8145 85.7522 75.8145C86.7057 75.8145 87.2622 75.3984 87.2622 74.6841C87.2622 74.28 87.1485 74.2456 86.5543 74.4676C84.535 75.2221 83.58 72.4243 85.2411 70.6204C85.7559 70.0613 86.9897 69.9692 87.4824 70.4535C88.2374 71.1955 87.6068 76.078 86.6215 77.12C86.1373 77.6321 85.7984 77.7326 84.7854 77.6621C83.6883 77.5856 83.5321 77.6435 83.4571 78.1611C83.4014 78.545 83.5445 78.792 83.8707 78.8751C85.5381 79.2997 87.1881 78.6183 87.9364 77.196C88.5576 76.0155 89.1723 71.5808 88.8663 70.4915C88.5532 69.3771 87.6816 68.7711 86.7056 68.7629V68.7627Z" fill="#105F7D"/>
<path id="path5191" d="M98.7313 68.756C97.7206 68.721 96.6233 69.2893 95.8796 70.3739C95.0256 71.6193 94.996 74.0678 95.8224 75.1003C96.256 75.6421 96.6371 75.8127 97.4064 75.8093C98.6751 75.8042 98.99 75.5987 99.1668 74.6624C99.3313 73.7915 99.3015 73.7799 98.4085 74.355C97.7827 74.7583 97.6762 74.7573 97.0415 74.3482C96.4819 73.9879 96.3521 73.6856 96.3521 72.7304C96.3521 71.1302 97.1592 70.1275 98.4455 70.1275C99.7978 70.1275 100.077 70.8473 99.6864 73.3236C99.2945 75.8065 99.2939 75.8124 99.8932 75.8124C100.311 75.8124 100.462 75.4715 100.721 73.9334C101.196 71.1008 101.132 70.3078 100.361 69.4896C99.9133 69.0152 99.3378 68.7769 98.7313 68.7559L98.7313 68.756Z" fill="#105F7D"/>
<path id="path5189" d="M132.22 68.7478C132.141 68.752 132.068 68.7795 132.009 68.8371C131.896 68.9485 131.404 71.7777 130.95 74.9335C130.845 75.6637 130.913 75.8126 131.352 75.8126C131.946 75.8126 131.996 75.6511 132.442 72.2943C132.609 71.0285 132.811 69.7776 132.889 69.5163C132.989 69.1823 132.621 68.7947 132.299 68.7511C132.272 68.7477 132.246 68.746 132.22 68.7477V68.7478Z" fill="#105F7D"/>
<path id="path5187" d="M120.848 68.7396C120.807 68.7399 120.766 68.7404 120.725 68.7429C119.632 68.8024 118.468 69.533 117.87 70.7475C117.006 72.5015 117.153 74.2857 118.251 75.3649C119.232 76.3289 121.423 75.6911 121.423 74.4411C121.423 73.8085 121.316 73.797 120.468 74.3436C119.556 74.9304 118.747 74.4708 118.51 73.233C118.271 71.9807 118.812 70.7486 119.829 70.2319C120.561 69.8599 120.704 69.864 121.342 70.2749C122.028 70.7169 122.042 70.785 121.867 72.8579C121.767 74.0287 121.609 75.1839 121.515 75.4244C121.383 75.7638 121.491 75.8408 122.003 75.7698C122.567 75.6914 122.689 75.4832 122.845 74.3238C123.225 71.5041 123.118 70.0714 122.477 69.4007C122.04 68.9436 121.459 68.7346 120.848 68.7397V68.7396Z" fill="#105F7D"/>
<path id="path5185" d="M42.1147 67.1497C41.7927 67.1497 41.5259 67.2396 41.5211 67.3513C41.5163 67.463 41.332 68.774 41.1125 70.2632C40.6229 73.5842 40.6007 75.0633 41.0335 75.4887C41.2153 75.6674 41.8348 75.8126 42.4106 75.8126C43.3436 75.8126 43.4582 75.7399 43.4582 75.1367C43.4582 74.5651 43.3305 74.4591 42.6326 74.4591C41.7055 74.4591 41.6549 74.2374 41.9835 71.5489L42.1584 70.1277H43.2211C44.1719 70.1277 44.2854 70.0552 44.2854 69.4501C44.2854 68.858 44.1645 68.7742 43.327 68.7742C42.4102 68.7742 42.3767 68.739 42.535 67.9611C42.6772 67.2625 42.6182 67.1497 42.1147 67.1497H42.1147Z" fill="#105F7D"/>
<path id="path5183" d="M132.736 66.6077C132.184 66.6077 131.727 67.481 132.028 67.9596C132.289 68.3757 132.913 68.2852 133.101 67.8042C133.404 67.0278 133.276 66.6077 132.736 66.6077Z" fill="#105F7D"/>
<path id="path5181" d="M139.623 66.0656C139.161 66.0656 138.548 66.6945 137.842 67.8934C137.451 68.5583 138.351 68.221 139.248 67.3662C140.289 66.3747 140.377 66.0656 139.623 66.0656Z" fill="#105F7D"/>
<path id="path5179" d="M109.062 65.7963C108.451 65.7963 108.314 66.1159 108.069 68.0967C107.469 72.945 107.118 73.9446 105.81 74.5302C105.178 74.8136 105.033 74.7648 104.42 74.0642C103.596 73.123 103.692 71.7728 104.655 70.7656C105.294 70.097 106.5 69.9194 107.008 70.4186C107.218 70.6255 107.358 70.4968 107.492 69.9707C107.718 69.0867 107.348 68.7835 106.036 68.7775C103.08 68.7643 101.52 74.5746 104.179 75.692C105.202 76.1217 106.182 75.9449 107.055 75.1697C108.114 74.2293 108.42 73.3555 108.886 69.9674C109.13 68.1939 109.393 66.5295 109.471 66.2689C109.573 65.9291 109.458 65.7963 109.062 65.7963Z" fill="#105F7D"/>
<path id="path5177" d="M69.7731 65.7946C69.1825 65.7946 69.0787 65.9183 69.0787 66.6242C69.0787 67.0804 68.8745 68.7444 68.6247 70.3211C68.2505 72.6821 68.0408 73.3307 67.4325 73.9997C66.8297 74.6628 66.5563 74.7778 65.9478 74.6277C64.5595 74.2852 64.3467 72.0517 65.5762 70.7359C66.176 70.094 67.3875 69.9281 67.8865 70.4186C68.0971 70.6255 68.2364 70.4951 68.3708 69.9691C68.5965 69.0851 68.2282 68.7835 66.9163 68.7775C64.337 68.7659 62.6366 73.239 64.4732 75.2045C65.6162 76.4277 67.9824 75.7649 68.9105 73.9617C69.1146 73.5653 69.4883 71.8403 69.7412 70.1277C69.994 68.4151 70.2598 66.7395 70.333 66.4044C70.4436 65.8992 70.3486 65.7946 69.7731 65.7946Z" fill="#105F7D"/>
<path id="path5175" d="M75.4347 62.2746C4.00539 62.2746 1.58301 62.2919 1.58301 62.772C1.58301 63.0451 1.6661 63.3495 1.76629 63.448C1.86647 63.5464 35.0595 63.5967 75.5288 63.5603L149.11 63.4943L149.197 62.8844L149.285 62.2746L75.4347 62.2746Z" fill="#105F7D"/>
</g>
<g id="ie">
<path id="path5123" d="M18.3153 30.7845C14.77 30.7921 14.4083 31.32 12.859 34.7936C10.0585 41.0723 9.16126 46.1311 9.93995 51.2551C10.8914 57.5162 12.633 59.3634 18.0211 59.8287C19.5109 59.9574 21.9134 60.0389 23.3597 60.0105C25.8243 59.9622 26.1354 59.8889 28.3184 58.8488C33.4232 56.4166 34.3034 54.9685 31.0878 54.2893C30.2748 54.1176 29.6915 54.3204 26.7092 55.808C23.6778 57.3201 23.0511 57.5344 21.4479 57.6093C19.9485 57.6794 19.4358 57.5849 18.5373 57.0722C17.0891 56.2459 15.9781 54.6297 15.5846 52.7771C15.043 50.2271 14.669 50.3627 22.255 50.3627C26.0595 50.3627 29.109 50.2486 29.3979 50.0966C30.2751 49.6352 30.608 47.4075 30.4269 43.2037C30.1141 35.9389 28.4697 32.2057 25.1774 31.2802C24.3325 31.0427 22.2597 30.8505 20.0422 30.8059C19.393 30.7929 18.8218 30.7833 18.3153 30.7844V30.7845ZM22.4871 33.8814C22.9815 33.8856 23.2171 34.0724 23.7044 34.6416C24.8796 36.0142 25.1281 37.3434 25.1337 42.2964C25.1378 45.9655 25.0601 46.8981 24.7251 47.2228C24.4127 47.5255 23.2083 47.6706 19.7917 47.8161L15.2719 48.0094L15.4585 45.8115C15.6887 43.0992 16.4588 40.5666 17.8697 37.8873C19.226 35.3119 20.4342 34.1225 21.8868 33.931C22.1281 33.8992 22.3222 33.8797 22.4871 33.8814V33.8814Z" fill="#105F7D"/>
<g id="g5999">
<path id="path5121" d="M5.31423 29.9763C3.39383 29.9648 1.48124 30.7262 0.508606 32.5164C-0.651866 34.6523 0.198773 36.6116 2.80212 37.803C5.89091 39.2166 9.78698 37.9798 10.6865 35.301C11.7405 32.1622 8.51491 29.9954 5.31423 29.9763Z" fill="#105F7D"/>
<path id="path4668" d="M0.206055 1.29109e-05V13.9512V27.9007L5.5094 27.8263C10.3581 27.7591 10.8102 27.7125 10.7892 27.2793C10.7766 27.0187 10.7455 20.774 10.7203 13.4025L10.6749 0H5.44046L0.206055 1.29109e-05Z" fill="#105F7D"/>
</g>
</g>
</g>
</svg>
