<svg width="20" height="20" viewBox="0 0 20 20" fill="none" xmlns="http://www.w3.org/2000/svg">
<g id="icono-menu">
<path d="M2 4.83333C2 4.3731 2.3731 4 2.83333 4H17.8333C18.2936 4 18.6667 4.3731 18.6667 4.83333C18.6667 5.29357 18.2936 5.66667 17.8333 5.66667H2.83333C2.3731 5.66667 2 5.29357 2 4.83333Z"/>
<path d="M2 9.86017C2 9.39992 2.3731 9.02683 2.83333 9.02683H17.8333C18.2936 9.02683 18.6667 9.39992 18.6667 9.86017C18.6667 10.3204 18.2936 10.6935 17.8333 10.6935H2.83333C2.3731 10.6935 2 10.3204 2 9.86017Z"/>
<path d="M2.83333 14.0538C2.3731 14.0538 2 14.4268 2 14.8871C2 15.3473 2.3731 15.7204 2.83333 15.7204H17.8333C18.2936 15.7204 18.6667 15.3473 18.6667 14.8871C18.6667 14.4268 18.2936 14.0538 17.8333 14.0538H2.83333Z"/>
</g>
</svg>
