<svg width="20" height="20" viewBox="0 0 20 20" fill="none" xmlns="http://www.w3.org/2000/svg">
<g id="icono-pin">
<path d="M10 14.1667L10.8334 12.5V8.21499C12.2675 7.84249 13.3334 6.54832 13.3334 4.99999C13.3334 3.16166 11.8384 1.66666 10 1.66666C8.16169 1.66666 6.66669 3.16166 6.66669 4.99999C6.66669 6.54832 7.73252 7.84249 9.16669 8.21499V12.5L10 14.1667ZM8.33335 4.99999C8.33335 4.08082 9.08085 3.33332 10 3.33332C10.9192 3.33332 11.6667 4.08082 11.6667 4.99999C11.6667 5.91916 10.9192 6.66666 10 6.66666C9.08085 6.66666 8.33335 5.91916 8.33335 4.99999Z"/>
<path d="M13.5559 8.8025L13.1117 10.4092C15.2709 11.0058 16.6667 12.1533 16.6667 13.3333C16.6667 14.91 13.9292 16.6667 10 16.6667C6.07085 16.6667 3.33335 14.91 3.33335 13.3333C3.33335 12.1533 4.72919 11.0058 6.88919 10.4083L6.44502 8.80167C3.49752 9.61667 1.66669 11.3525 1.66669 13.3333C1.66669 16.1367 5.32752 18.3333 10 18.3333C14.6725 18.3333 18.3334 16.1367 18.3334 13.3333C18.3334 11.3525 16.5025 9.61667 13.5559 8.8025Z"/>
</g>
</svg>
