<svg width="20" height="20" viewBox="0 0 20 20" fill="none" xmlns="http://www.w3.org/2000/svg">
<g id="icono-whatsapp">
<path id="Vector" d="M6.37751 15.745L6.98084 16.0975C7.99829 16.6909 9.1555 17.0024 10.3333 17C11.6519 17 12.9408 16.609 14.0371 15.8765C15.1335 15.1439 15.988 14.1027 16.4925 12.8846C16.9971 11.6664 17.1291 10.3259 16.8719 9.03273C16.6147 7.73952 15.9797 6.55164 15.0474 5.61929C14.115 4.68694 12.9272 4.052 11.6339 3.79476C10.3407 3.53753 9.0003 3.66955 7.78212 4.17414C6.56395 4.67872 5.52276 5.5332 4.79021 6.62953C4.05767 7.72586 3.66668 9.01479 3.66668 10.3333C3.66668 11.53 3.98084 12.6775 4.57001 13.6867L4.92168 14.29L4.37751 16.2908L6.37751 15.745ZM2.00334 18.6667L3.13001 14.5267C2.38763 13.254 1.99759 11.8067 2.00001 10.3333C2.00001 5.73083 5.73084 2 10.3333 2C14.9358 2 18.6667 5.73083 18.6667 10.3333C18.6667 14.9358 14.9358 18.6667 10.3333 18.6667C8.86066 18.669 7.41389 18.2793 6.14168 17.5375L2.00334 18.6667ZM7.32584 6.42333C7.43751 6.415 7.55001 6.415 7.66168 6.42C7.70668 6.42333 7.75168 6.42833 7.79668 6.43333C7.92918 6.44833 8.07501 6.52917 8.12418 6.64083C8.37251 7.20417 8.61418 7.77167 8.84751 8.34083C8.89918 8.4675 8.86834 8.63 8.77001 8.78833C8.70238 8.8954 8.62923 8.99887 8.55084 9.09833C8.45668 9.21917 8.25418 9.44083 8.25418 9.44083C8.25418 9.44083 8.17168 9.53917 8.20334 9.66167C8.21501 9.70833 8.25334 9.77583 8.28834 9.8325L8.33751 9.91167C8.55084 10.2675 8.83751 10.6283 9.18751 10.9683C9.28751 11.065 9.38501 11.1642 9.49001 11.2567C9.88001 11.6008 10.3217 11.8817 10.7983 12.09L10.8025 12.0917C10.8733 12.1225 10.9092 12.1392 11.0125 12.1833C11.0642 12.205 11.1175 12.2242 11.1717 12.2383C11.2277 12.2526 11.2866 12.2499 11.341 12.2306C11.3955 12.2113 11.443 12.1763 11.4775 12.13C12.0808 11.3992 12.1358 11.3517 12.1408 11.3517V11.3533C12.1828 11.3142 12.2326 11.2846 12.2869 11.2663C12.3412 11.2481 12.3988 11.2416 12.4558 11.2475C12.5058 11.2508 12.5567 11.26 12.6033 11.2808C13.0458 11.4833 13.77 11.7992 13.77 11.7992L14.255 12.0167C14.3367 12.0558 14.4108 12.1483 14.4133 12.2375C14.4167 12.2933 14.4217 12.3833 14.4025 12.5483C14.3758 12.7642 14.3108 13.0233 14.2458 13.1592C14.2013 13.2519 14.1422 13.3368 14.0708 13.4108C13.9868 13.4991 13.8947 13.5795 13.7958 13.6508C13.7616 13.6766 13.7269 13.7016 13.6917 13.7258C13.588 13.7916 13.4815 13.8528 13.3725 13.9092C13.158 14.0231 12.921 14.0886 12.6783 14.1008C12.5242 14.1092 12.37 14.1208 12.215 14.1125C12.2083 14.1125 11.7417 14.04 11.7417 14.04C10.5569 13.7284 9.46117 13.1446 8.54168 12.335C8.35334 12.1692 8.17918 11.9908 8.00084 11.8133C7.25918 11.0758 6.69918 10.28 6.35918 9.52833C6.18515 9.15941 6.09115 8.75784 6.08334 8.35C6.07991 7.84404 6.2453 7.35139 6.55334 6.95C6.61418 6.87167 6.67168 6.79 6.77084 6.69583C6.87668 6.59583 6.94334 6.5425 7.01584 6.50583C7.11224 6.45753 7.2174 6.42918 7.32501 6.4225L7.32584 6.42333Z"/>
</g>
</svg>
