<svg width="20" height="20" viewBox="0 0 20 20" fill="none" xmlns="http://www.w3.org/2000/svg">
<g id="icono-zoom">
<path id="Vector" d="M12.9734 11.4962H12.2771L12.0302 11.2583C12.8941 10.2534 13.4141 8.94884 13.4141 7.5297C13.4141 4.36527 10.8491 1.80023 7.68466 1.80023C4.52024 1.80023 1.9552 4.36527 1.9552 7.5297C1.9552 10.6941 4.52024 13.2592 7.68466 13.2592C9.10381 13.2592 10.4084 12.7391 11.4132 11.8753L11.6512 12.1221V12.8184L16.0585 17.2169L17.3719 15.9035L12.9734 11.4962ZM7.68466 11.4962C5.48984 11.4962 3.71811 9.72452 3.71811 7.5297C3.71811 5.33487 5.48984 3.56314 7.68466 3.56314C9.87949 3.56314 11.6512 5.33487 11.6512 7.5297C11.6512 9.72452 9.87949 11.4962 7.68466 11.4962ZM8.12539 5.32606H7.24394V7.08897H5.48102V7.97042H7.24394V9.73334H8.12539V7.97042H9.8883V7.08897H8.12539V5.32606Z"/>
</g>
</svg>
